<svg xmlns="http://www.w3.org/2000/svg" width="28.667" height="34.247" viewBox="0 0 28.667 34.247">
  <g id="style_fill" data-name="style=fill" transform="translate(-3.248 -1.248)">
    <g id="notification-bell-new" transform="translate(3.248 1.248)">
      <path id="vector_Stroke_" data-name="vector (Stroke)" d="M18.471,19.834a1.21,1.21,0,0,1,1.181,1.787,4.989,4.989,0,0,1-1.339,1.538,6.253,6.253,0,0,1-1.916.989,7.3,7.3,0,0,1-4.382,0,6.252,6.252,0,0,1-1.916-.989,4.987,4.987,0,0,1-1.339-1.538,1.21,1.21,0,0,1,1.181-1.787c.306.031,2.7.265,4.265.265S18.165,19.864,18.471,19.834Z" transform="translate(-0.071 9.762)" fill="#5e6eed" fill-rule="evenodd"/>
      <path id="Subtract" d="M23.146,2.425a13.764,13.764,0,0,0-11.488.16A10.116,10.116,0,0,0,5.8,11.67V13.7a10.52,10.52,0,0,1-1.36,5.164l-.362.642A6.578,6.578,0,0,0,8.89,29.167a48.575,48.575,0,0,0,16.984,0l.256-.045a6.756,6.756,0,0,0,5.125-9.534l-.423-.876a10.767,10.767,0,0,1-1.075-4.682v-.512a5.177,5.177,0,1,1-3.884-9.485,10.886,10.886,0,0,0-2.4-1.461Z" transform="translate(-3.248 -1.248)" fill="#5e6eed" fill-rule="evenodd"/>
      <circle id="vector" cx="3.981" cy="3.981" r="3.981" transform="translate(19.907 3.823)" fill="#ff5730"/>
    </g>
  </g>
</svg>
