<svg xmlns="http://www.w3.org/2000/svg" width="259" height="143" viewBox="0 0 259 143">
  <g id="Group_268" data-name="Group 268" transform="translate(0 0)">
    <rect id="Rectangle_61" data-name="Rectangle 61" width="259" height="143" rx="15" transform="translate(0 0)" fill="#00d284"/>
    <g id="Group_257" data-name="Group 257" transform="translate(0 5.037)">
      <g id="Group_149" data-name="Group 149" transform="translate(14.118 100.02)">
        <g id="Group_144" data-name="Group 144" transform="translate(0 0)">
          <circle id="Ellipse_24" data-name="Ellipse 24" cx="5.33" cy="5.33" r="5.33" transform="matrix(0.866, -0.5, 0.5, 0.866, 0, 5.332)" fill="#ffd42e"/>
          <path id="Path_119" data-name="Path 119" d="M170.272,295.135a5.538,5.538,0,1,1,5.357-4.13A5.529,5.529,0,0,1,170.272,295.135Zm0-10.661a5.126,5.126,0,1,0,1.3.169A5.131,5.131,0,0,0,170.274,284.475Z" transform="translate(-162.992 -282.316)"/>
        </g>
        <g id="Group_148" data-name="Group 148" transform="translate(5.075 3.649)">
          <g id="Group_145" data-name="Group 145" transform="translate(0 0.71)">
            <path id="Path_120" data-name="Path 120" d="M174.622,296.145a1.486,1.486,0,0,1-.377-.048,2.346,2.346,0,0,1-1.648-1.192.208.208,0,0,1,.385-.156,1.96,1.96,0,0,0,1.369.946,1.087,1.087,0,0,0,.79-.1,1.058,1.058,0,0,0,.521-.685c.206-.784-.284-1.187-.852-1.654s-1.188-.977-.989-1.907a1.511,1.511,0,0,1,.7-.906,1.4,1.4,0,0,1,1.1-.182c1.229.323,1.334,1.128,1.338,1.162a.208.208,0,0,1-.413.049c0-.028-.1-.564-1.031-.809a.988.988,0,0,0-.775.135,1.121,1.121,0,0,0-.513.638c-.146.683.314,1.061.847,1.5.592.487,1.264,1.039.99,2.081a1.489,1.489,0,0,1-.724.944A1.507,1.507,0,0,1,174.622,296.145Z" transform="translate(-172.581 -290.221)"/>
          </g>
          <g id="Group_146" data-name="Group 146" transform="translate(2.797)">
            <path id="Path_121" data-name="Path 121" d="M179.373,289.717a.208.208,0,0,1-.2-.261l.2-.752a.208.208,0,0,1,.4.106l-.2.751A.208.208,0,0,1,179.373,289.717Z" transform="translate(-179.165 -288.549)"/>
          </g>
          <g id="Group_147" data-name="Group 147" transform="translate(1.092 6.119)">
            <path id="Path_122" data-name="Path 122" d="M175.359,304.123a.206.206,0,0,1-.053-.007.208.208,0,0,1-.148-.254l.2-.752a.208.208,0,0,1,.4.106l-.2.752A.208.208,0,0,1,175.359,304.123Z" transform="translate(-175.151 -302.955)"/>
          </g>
        </g>
      </g>
      <g id="Group_157" data-name="Group 157" transform="translate(0 62.698)">
        <g id="Group_153" data-name="Group 153" transform="translate(4.653 4.173)">
          <g id="Group_150" data-name="Group 150" transform="translate(4.6 4.6)">
            <path id="Path_123" data-name="Path 123" d="M156.8,227.991a7.621,7.621,0,0,1-6.375-11.79.208.208,0,1,1,.348.228,7.2,7.2,0,1,0,1.93-1.982.208.208,0,1,1-.237-.342,7.585,7.585,0,0,1,4.213-1.353h.126a7.62,7.62,0,0,1,.122,15.239Z" transform="translate(-149.182 -212.751)"/>
          </g>
          <g id="Group_151" data-name="Group 151">
            <path id="Path_124" data-name="Path 124" d="M150.569,226.362a12.235,12.235,0,0,1-12.216-12.021,12.1,12.1,0,0,1,2.462-7.558.208.208,0,1,1,.332.251,11.686,11.686,0,0,0-2.378,7.3,11.819,11.819,0,0,0,11.8,11.611l.2,0a11.8,11.8,0,1,0-.385-23.6,11.682,11.682,0,0,0-7.242,2.633.208.208,0,0,1-.262-.323,12.22,12.22,0,0,1,19.915,9.293,12.234,12.234,0,0,1-12.019,12.418Z" transform="translate(-138.352 -201.922)"/>
          </g>
          <g id="Group_152" data-name="Group 152" transform="translate(8.796 8.796)">
            <path id="Path_125" data-name="Path 125" d="M165.98,226.282a3.216,3.216,0,1,0-3.164,3.269A3.217,3.217,0,0,0,165.98,226.282Z" transform="translate(-159.34 -222.91)" fill="#ffd42e"/>
            <path id="Path_126" data-name="Path 126" d="M162.481,229.478a3.42,3.42,0,1,1,.057,0Zm0-6.433h-.05a3.007,3.007,0,1,0,.05,0Z" transform="translate(-159.059 -222.629)"/>
          </g>
        </g>
        <g id="Group_154" data-name="Group 154" transform="translate(3.132 3.087)">
          <path id="Path_127" data-name="Path 127" d="M148.512,212.878a.209.209,0,0,1-.145-.058l-13.533-13.1a.208.208,0,0,1,.289-.3l13.533,13.1a.208.208,0,0,1,0,.294A.2.2,0,0,1,148.512,212.878Z" transform="translate(-134.771 -199.364)"/>
        </g>
        <g id="Group_155" data-name="Group 155" transform="translate(0 3.114)">
          <path id="Path_128" data-name="Path 128" d="M134.375,203.192l-3.382-3.273-3.1.366,3.382,3.273Z" transform="translate(-127.68 -199.711)"/>
          <path id="Path_129" data-name="Path 129" d="M130.989,203.484a.208.208,0,0,1-.145-.059l-3.382-3.273a.208.208,0,0,1,.12-.356l3.1-.366a.2.2,0,0,1,.169.057l3.382,3.273a.208.208,0,0,1-.12.356l-3.1.366Zm-2.923-3.326,3,2.9,2.571-.3-3-2.9Z" transform="translate(-127.399 -199.429)"/>
        </g>
        <g id="Group_156" data-name="Group 156" transform="translate(3.131 0)">
          <path id="Path_130" data-name="Path 130" d="M138.642,198.947l-3.382-3.273.237-3.087,3.382,3.273Z" transform="translate(-135.052 -192.379)"/>
          <path id="Path_131" data-name="Path 131" d="M138.361,198.873a.208.208,0,0,1-.145-.059l-3.382-3.273a.208.208,0,0,1-.063-.166l.237-3.086a.208.208,0,0,1,.352-.133l3.382,3.273a.208.208,0,0,1,.063.166l-.237,3.086a.208.208,0,0,1-.134.178A.2.2,0,0,1,138.361,198.873Zm-3.167-3.563,2.993,2.9.2-2.547-2.993-2.9Z" transform="translate(-134.771 -192.098)"/>
        </g>
      </g>
      <g id="Group_161" data-name="Group 161" transform="translate(184.159 85.903)">
        <g id="Group_158" data-name="Group 158">
          <path id="Path_132" data-name="Path 132" d="M566.3,261.736a10.431,10.431,0,1,1,19.01,6.663l3.646,3.258a15.292,15.292,0,1,0-27.538-9.646Z" transform="translate(-561.214 -247.008)" fill="#fff"/>
          <path id="Path_133" data-name="Path 133" d="M588.679,271.583a.207.207,0,0,1-.138-.053l-3.647-3.258a.207.207,0,0,1-.033-.272A10.223,10.223,0,0,0,568.8,255.415a10.126,10.126,0,0,0-2.569,6.054.209.209,0,0,1-.2.192l-4.882.274a.214.214,0,0,1-.157-.059.208.208,0,0,1-.063-.155,15.5,15.5,0,1,1,27.913,9.778.206.206,0,0,1-.146.082Zm-3.373-3.5,3.341,2.985a15.177,15.177,0,0,0-2.172-20.09,15.084,15.084,0,0,0-25.118,10.53l4.473-.251a10.639,10.639,0,0,1,17.683-6.964A10.656,10.656,0,0,1,585.306,268.083Zm-19.283-6.629h0Z" transform="translate(-560.933 -246.726)"/>
        </g>
        <g id="Group_159" data-name="Group 159" transform="translate(15.545 23.186)">
          <path id="Path_134" data-name="Path 134" d="M604.576,301.8a10.4,10.4,0,0,1-6.274,2.524l-.283,4.873a15.252,15.252,0,0,0,10.2-4.139Z" transform="translate(-597.81 -301.589)"/>
          <path id="Path_135" data-name="Path 135" d="M597.736,309.12a.208.208,0,0,1-.208-.22l.283-4.873a.208.208,0,0,1,.2-.2,10.254,10.254,0,0,0,6.149-2.474.208.208,0,0,1,.275,0l3.646,3.258a.207.207,0,0,1,0,.307,15.45,15.45,0,0,1-10.343,4.2Zm.48-4.884-.26,4.462a15.034,15.034,0,0,0,9.675-3.923l-3.341-2.985A10.682,10.682,0,0,1,598.216,304.237Z" transform="translate(-597.528 -301.308)"/>
        </g>
        <g id="Group_160" data-name="Group 160" transform="translate(0.149 17.201)">
          <path id="Path_136" data-name="Path 136" d="M574.775,296.011a10.422,10.422,0,0,1-8.121-8.3l-4.882.274A15.3,15.3,0,0,0,574.49,300.9Z" transform="translate(-561.564 -287.501)" fill="#ffd42e"/>
          <path id="Path_137" data-name="Path 137" d="M574.209,300.829l-.032,0a15.5,15.5,0,0,1-12.892-13.1.208.208,0,0,1,.194-.237l4.881-.275a.209.209,0,0,1,.216.169,10.213,10.213,0,0,0,7.959,8.137.207.207,0,0,1,.165.216l-.284,4.891a.208.208,0,0,1-.208.2ZM561.73,287.9a15.088,15.088,0,0,0,12.284,12.481l.261-4.483a10.632,10.632,0,0,1-8.073-8.251Z" transform="translate(-561.283 -287.219)"/>
        </g>
      </g>
      <g id="Group_165" data-name="Group 165" transform="translate(171.948 12.395)">
        <g id="Group_162" data-name="Group 162" transform="translate(0 0)">
          <path id="Path_138" data-name="Path 138" d="M550.314,94.8l-1.231-.812a2.9,2.9,0,0,0-4.314,1.424l-.506,1.386-3.712-.485-.133-1.469a2.9,2.9,0,0,0-3.8-2.485l-1.4.468-1.935-3.2,1.065-1.02a2.9,2.9,0,0,0-.429-4.524l-1.238-.8,1.3-3.511,1.462.2a2.9,2.9,0,0,0,3.27-3.155l-.145-1.468,3.555-1.173.758,1.265a2.9,2.9,0,0,0,4.505.589l1.057-1.028,3.134,2.048-.517,1.381a2.9,2.9,0,0,0,2.349,3.89l1.463.186c.193,2.039.16,1.688.353,3.727l-1.4.457a2.9,2.9,0,0,0-1.577,4.261l.768,1.259Z" transform="translate(-532.469 -73.96)" fill="#fff"/>
          <path id="Path_139" data-name="Path 139" d="M543.98,96.727l-.027,0-3.712-.485a.208.208,0,0,1-.181-.187l-.133-1.469a2.689,2.689,0,0,0-3.531-2.307l-1.4.468a.209.209,0,0,1-.244-.09l-1.935-3.2a.208.208,0,0,1,.034-.257l1.066-1.02a2.69,2.69,0,0,0-.4-4.2l-1.238-.8a.208.208,0,0,1-.082-.247l1.3-3.511a.207.207,0,0,1,.223-.134l1.462.2a2.689,2.689,0,0,0,3.035-2.929l-.145-1.468a.209.209,0,0,1,.142-.218l3.555-1.173a.209.209,0,0,1,.244.09l.757,1.266a2.688,2.688,0,0,0,4.182.546l1.057-1.028a.208.208,0,0,1,.259-.025l3.134,2.048a.208.208,0,0,1,.081.247l-.517,1.381a2.689,2.689,0,0,0,2.18,3.61l1.463.186a.207.207,0,0,1,.18.186l.354,3.727a.209.209,0,0,1-.143.217l-1.4.457a2.689,2.689,0,0,0-1.463,3.956l.768,1.259a.208.208,0,0,1-.033.258l-2.693,2.6a.208.208,0,0,1-.259.024l-1.231-.812a2.689,2.689,0,0,0-4.005,1.322l-.506,1.385A.207.207,0,0,1,543.98,96.727Zm-3.52-.878,3.382.442.449-1.229a3.1,3.1,0,0,1,4.624-1.527l1.093.72,2.454-2.369-.681-1.118a3.1,3.1,0,0,1,1.69-4.567l1.244-.405-.321-3.4-1.3-.164a3.1,3.1,0,0,1-2.517-4.169l.459-1.226-2.855-1.866-.937.912a3.105,3.105,0,0,1-4.829-.631l-.672-1.123L538.5,75.2l.129,1.3a3.1,3.1,0,0,1-3.5,3.382l-1.3-.175-1.184,3.2,1.1.712a3.1,3.1,0,0,1,.459,4.848l-.945.905,1.763,2.92,1.241-.415a3.1,3.1,0,0,1,4.077,2.663Z" transform="translate(-532.187 -73.678)"/>
        </g>
        <g id="Group_163" data-name="Group 163" transform="translate(4.02 4.065)">
          <circle id="Ellipse_25" data-name="Ellipse 25" cx="5.274" cy="5.274" r="5.274" transform="translate(0 7.459) rotate(-45)"/>
          <path id="Path_140" data-name="Path 140" d="M551.786,98.866a5.482,5.482,0,1,1,5.483-5.482A5.489,5.489,0,0,1,551.786,98.866Zm0-10.549a5.067,5.067,0,1,0,5.067,5.067A5.072,5.072,0,0,0,551.786,88.317Z" transform="translate(-544.327 -85.924)"/>
        </g>
        <g id="Group_164" data-name="Group 164" transform="translate(6.625 6.67)">
          <circle id="Ellipse_26" data-name="Ellipse 26" cx="3.432" cy="3.432" r="3.432" transform="translate(0 4.854) rotate(-45)" fill="#fff"/>
          <path id="Path_141" data-name="Path 141" d="M554.281,99.519a3.64,3.64,0,1,1,3.641-3.64A3.644,3.644,0,0,1,554.281,99.519Zm0-6.865a3.225,3.225,0,1,0,3.225,3.225A3.228,3.228,0,0,0,554.281,92.654Z" transform="translate(-549.427 -91.024)"/>
        </g>
      </g>
      <g id="Group_168" data-name="Group 168" transform="translate(73.756 115.293)">
        <g id="Group_166" data-name="Group 166">
          <path id="Path_142" data-name="Path 142" d="M314.3,331.356l-.892-.588a2.1,2.1,0,0,0-3.126,1.032l-.367,1-2.69-.352-.1-1.064a2.1,2.1,0,0,0-2.756-1.8l-1.014.339-1.4-2.322.772-.739a2.1,2.1,0,0,0-.311-3.278l-.9-.581.941-2.544,1.059.142a2.1,2.1,0,0,0,2.369-2.286l-.1-1.064,2.576-.85.549.917a2.1,2.1,0,0,0,3.265.426l.766-.745,2.271,1.484-.375,1a2.1,2.1,0,0,0,1.7,2.819l1.06.134c.14,1.477.116,1.223.256,2.7l-1.016.331a2.1,2.1,0,0,0-1.143,3.088l.556.913Z" transform="translate(-301.312 -316.196)" fill="#fff"/>
          <path id="Path_143" data-name="Path 143" d="M309.633,332.73l-.027,0-2.69-.351a.207.207,0,0,1-.18-.187l-.1-1.065a1.891,1.891,0,0,0-2.483-1.623l-1.014.339a.209.209,0,0,1-.244-.09l-1.4-2.322a.208.208,0,0,1,.034-.257l.772-.739a1.891,1.891,0,0,0-.28-2.953l-.9-.582a.208.208,0,0,1-.082-.246l.941-2.544a.207.207,0,0,1,.223-.134l1.059.143a1.891,1.891,0,0,0,2.135-2.06l-.105-1.064a.208.208,0,0,1,.142-.218l2.576-.85a.209.209,0,0,1,.244.09l.549.917a1.891,1.891,0,0,0,2.941.385l.766-.745a.208.208,0,0,1,.259-.025l2.271,1.484a.208.208,0,0,1,.081.247l-.375,1a1.891,1.891,0,0,0,1.534,2.539l1.06.134a.208.208,0,0,1,.181.186l.256,2.7a.207.207,0,0,1-.142.217l-1.017.331a1.892,1.892,0,0,0-1.029,2.782l.556.912a.207.207,0,0,1-.033.258l-1.952,1.884a.208.208,0,0,1-.259.024l-.892-.588a1.891,1.891,0,0,0-2.817.93l-.367,1A.207.207,0,0,1,309.633,332.73Zm-2.5-.744,2.36.308.31-.847a2.307,2.307,0,0,1,3.436-1.135l.753.5,1.712-1.652-.469-.771a2.307,2.307,0,0,1,1.256-3.394l.858-.28-.225-2.369-.9-.113a2.307,2.307,0,0,1-1.871-3.1l.316-.845-1.992-1.3-.647.629a2.307,2.307,0,0,1-3.588-.469l-.463-.774-2.26.746.089.9a2.307,2.307,0,0,1-2.6,2.513l-.894-.121-.826,2.232.757.491a2.307,2.307,0,0,1,.341,3.6l-.652.624,1.23,2.037.856-.286a2.307,2.307,0,0,1,3.03,1.979Z" transform="translate(-301.031 -315.915)"/>
        </g>
        <g id="Group_167" data-name="Group 167" transform="translate(5.113 5.146)">
          <circle id="Ellipse_27" data-name="Ellipse 27" cx="3.054" cy="3.054" r="3.054" transform="translate(0.208 0.208)" fill="#fff"/>
          <path id="Path_144" data-name="Path 144" d="M316.329,334.553a3.262,3.262,0,1,1,3.262-3.262A3.266,3.266,0,0,1,316.329,334.553Zm0-6.109a2.846,2.846,0,1,0,2.846,2.846A2.85,2.85,0,0,0,316.329,328.444Z" transform="translate(-313.067 -328.028)"/>
        </g>
      </g>
      <g id="Group_184" data-name="Group 184" transform="translate(208.867 42.147)">
        <g id="Group_169" data-name="Group 169" transform="translate(9.435 31.58)">
          <rect id="Rectangle_56" data-name="Rectangle 56" width="3.641" height="1.694" transform="translate(0.66 0.208) rotate(15.467)"/>
          <path id="Path_145" data-name="Path 145" d="M645.027,221.082a.21.21,0,0,1-.056-.007l-3.51-.971a.206.206,0,0,1-.125-.1.21.21,0,0,1-.02-.158l.452-1.633a.208.208,0,0,1,.256-.145l3.51.971a.209.209,0,0,1,.145.256l-.452,1.633A.208.208,0,0,1,645.027,221.082Zm-3.254-1.324,3.109.861.341-1.232-3.109-.86Z" transform="translate(-641.31 -218.062)"/>
        </g>
        <g id="Group_171" data-name="Group 171" transform="translate(6.797 6.733)">
          <g id="Group_170" data-name="Group 170">
            <path id="Path_146" data-name="Path 146" d="M653.825,171.816a9.28,9.28,0,1,0-17.014,2.1c1.334,2.349,2.395,3.937,1.674,6.541l6.167,1.707c.711-2.572,2.379-3.414,4.715-4.7A9.249,9.249,0,0,0,653.825,171.816Z" transform="translate(-635.387 -159.853)" fill="#fff"/>
            <path id="Path_147" data-name="Path 147" d="M644.365,182.092a.207.207,0,0,1-.055-.008l-6.167-1.706a.208.208,0,0,1-.145-.256c.651-2.352-.209-3.856-1.4-5.937q-.126-.219-.254-.446a9.487,9.487,0,1,1,17.4-2.151h0a9.412,9.412,0,0,1-4.558,5.774l-.234.129c-2.238,1.233-3.716,2.047-4.38,4.448a.206.206,0,0,1-.1.125A.21.21,0,0,1,644.365,182.092Zm-5.914-2.06,5.772,1.6c.739-2.417,2.335-3.3,4.523-4.5l.234-.129a9.072,9.072,0,1,0-12.275-3.465l.254.445C638.12,176.009,639.044,177.625,638.451,180.032Z" transform="translate(-635.101 -159.57)"/>
          </g>
        </g>
        <g id="Group_172" data-name="Group 172" transform="translate(8.437 25.343)">
          <path id="Path_148" data-name="Path 148" d="M640.059,206.747l.8-2.878,7.3,2.02-.8,2.878a3.788,3.788,0,0,1-4.661,2.64h0A3.788,3.788,0,0,1,640.059,206.747Z" transform="translate(-639.513 -203.661)" fill="#ffd42e"/>
          <path id="Path_149" data-name="Path 149" d="M643.759,211.671a3.116,3.116,0,0,1-.834-.114l-1.666-.461a3.132,3.132,0,0,1-2.183-3.853h0l1.027-3.712a.208.208,0,0,1,.256-.145l7.3,2.02a.208.208,0,0,1,.145.256l-1.027,3.711A3.137,3.137,0,0,1,643.759,211.671Zm-4.282-4.317h0a2.715,2.715,0,0,0,1.893,3.341l1.667.461a2.718,2.718,0,0,0,3.341-1.893l.972-3.511-6.9-1.909Z" transform="translate(-638.961 -203.379)"/>
        </g>
        <g id="Group_173" data-name="Group 173" transform="translate(10.181 27.031)">
          <path id="Path_150" data-name="Path 150" d="M648.765,209.049l-.019,0-5.63-1.558a.069.069,0,1,1,.037-.133l5.63,1.558a.069.069,0,0,1-.019.136Z" transform="translate(-643.066 -207.353)"/>
        </g>
        <g id="Group_174" data-name="Group 174" transform="translate(12.574 18.383)">
          <path id="Path_151" data-name="Path 151" d="M654.4,188.691l-.019,0-5.63-1.558a.069.069,0,0,1,.037-.133l5.63,1.558a.069.069,0,0,1-.019.136Z" transform="translate(-648.7 -186.995)"/>
        </g>
        <g id="Group_175" data-name="Group 175" transform="translate(19.556)">
          <path id="Path_152" data-name="Path 152" d="M665.345,147.6a.191.191,0,0,1-.056-.008.207.207,0,0,1-.145-.256l.958-3.462a.208.208,0,1,1,.4.111l-.958,3.461A.208.208,0,0,1,665.345,147.6Z" transform="translate(-665.137 -143.719)"/>
        </g>
        <g id="Group_176" data-name="Group 176" transform="translate(28.344 7.753)">
          <path id="Path_153" data-name="Path 153" d="M686.034,164.157a.208.208,0,0,1-.1-.389L689.056,162a.208.208,0,1,1,.2.362l-3.125,1.771A.207.207,0,0,1,686.034,164.157Z" transform="translate(-685.826 -161.971)"/>
        </g>
        <g id="Group_177" data-name="Group 177" transform="translate(29.594 19.075)">
          <path id="Path_154" data-name="Path 154" d="M692.437,190a.21.21,0,0,1-.056-.007l-3.462-.958a.208.208,0,0,1,.111-.4l3.462.958a.208.208,0,0,1-.055.408Z" transform="translate(-688.767 -188.624)"/>
        </g>
        <g id="Group_178" data-name="Group 178" transform="translate(7.673 1.168)">
          <path id="Path_155" data-name="Path 155" d="M639.141,150.01a.208.208,0,0,1-.181-.106l-1.771-3.125a.208.208,0,0,1,.362-.205l1.77,3.125a.208.208,0,0,1-.181.311Z" transform="translate(-637.163 -146.469)"/>
        </g>
        <g id="Group_179" data-name="Group 179" transform="translate(0 10.886)">
          <path id="Path_156" data-name="Path 156" d="M622.769,170.72a.211.211,0,0,1-.056-.008l-3.462-.958a.208.208,0,1,1,.111-.4l3.461.958a.208.208,0,0,1-.055.409Z" transform="translate(-619.099 -169.346)"/>
        </g>
        <g id="Group_182" data-name="Group 182" transform="translate(11.225 15.704)">
          <g id="Group_180" data-name="Group 180">
            <path id="Path_157" data-name="Path 157" d="M646.473,191.227a.227.227,0,0,1-.047-.005.208.208,0,0,1-.156-.25c.015-.064,1.467-6.484-.715-9.965a.208.208,0,1,1,.352-.221c2.274,3.628.83,10.01.767,10.28A.207.207,0,0,1,646.473,191.227Z" transform="translate(-645.524 -180.689)"/>
          </g>
          <g id="Group_181" data-name="Group 181" transform="translate(3.345 2.542)">
            <path id="Path_158" data-name="Path 158" d="M653.606,195.389a.221.221,0,0,1-.064-.01.208.208,0,0,1-.134-.262c.085-.264,2.127-6.481,5.943-8.423a.208.208,0,1,1,.189.37c-3.661,1.864-5.715,8.118-5.736,8.181A.208.208,0,0,1,653.606,195.389Z" transform="translate(-653.398 -186.672)"/>
          </g>
        </g>
        <g id="Group_183" data-name="Group 183" transform="translate(11.244 15.219)">
          <path id="Path_159" data-name="Path 159" d="M654.963,182.918a.212.212,0,0,1-.056-.008,1.222,1.222,0,0,1-.782-.714c-.128-.239-.23-.428-.526-.511a.823.823,0,0,0-.714.167,1.169,1.169,0,0,1-1.821-.5c-.128-.24-.229-.428-.527-.511a.822.822,0,0,0-.714.167,1.17,1.17,0,0,1-1.821-.5c-.128-.24-.23-.429-.527-.511a.823.823,0,0,0-.715.167,1.221,1.221,0,0,1-1.039.211.208.208,0,1,1,.111-.4.823.823,0,0,0,.714-.167,1.17,1.17,0,0,1,1.822.5c.128.239.23.428.527.511a.821.821,0,0,0,.714-.167,1.169,1.169,0,0,1,1.821.5c.128.239.23.428.527.511a.822.822,0,0,0,.714-.167,1.169,1.169,0,0,1,1.82.5c.128.239.229.428.526.511a.208.208,0,0,1-.056.408Z" transform="translate(-645.57 -179.547)"/>
        </g>
      </g>
      <g id="Group_202" data-name="Group 202" transform="translate(30.806 23.391)">
        <g id="Group_192" data-name="Group 192">
          <g id="Group_187" data-name="Group 187" transform="translate(14.444 21.541)">
            <g id="Group_185" data-name="Group 185" transform="translate(0 4.849)">
              <path id="Path_160" data-name="Path 160" d="M238.964,183.773l-3.7-2.775-.852-18.82,7.858,10.791Z" transform="translate(-234.204 -161.97)"/>
              <path id="Path_161" data-name="Path 161" d="M238.682,183.7a.209.209,0,0,1-.124-.042l-3.7-2.775a.209.209,0,0,1-.083-.157l-.852-18.82a.208.208,0,0,1,.376-.132l7.858,10.791a.207.207,0,0,1,.031.183l-3.306,10.8a.208.208,0,0,1-.2.147Zm-3.5-3.09,3.384,2.538,3.189-10.422-7.39-10.148Z" transform="translate(-233.923 -161.688)"/>
            </g>
            <g id="Group_186" data-name="Group 186" transform="translate(6.659)">
              <path id="Path_162" data-name="Path 162" d="M269.244,161.723l-1.505-4.373-17.65-6.588,7.858,10.791Z" transform="translate(-249.881 -150.554)"/>
              <path id="Path_163" data-name="Path 163" d="M268.963,161.649h0l-11.3-.169a.207.207,0,0,1-.165-.086L249.639,150.6a.208.208,0,0,1,.241-.317l17.65,6.588a.208.208,0,0,1,.124.127l1.505,4.373a.208.208,0,0,1-.2.276Zm-11.191-.584,10.9.164-1.377-4-16.91-6.311Z" transform="translate(-249.599 -150.273)"/>
            </g>
          </g>
          <g id="Group_188" data-name="Group 188">
            <path id="Path_164" data-name="Path 164" d="M222.263,139.563l-14.318-16.33c-5.815-6.632-8.535-15.064-7.2-23.181l.041.007a28.811,28.811,0,0,1,19.514,13.559L231.7,132.691Z" transform="translate(-200.2 -99.845)" fill="#ffd42e"/>
            <path id="Path_165" data-name="Path 165" d="M221.982,139.49a.208.208,0,0,1-.157-.071L207.507,123.09c-5.933-6.767-8.577-15.278-7.254-23.352a.211.211,0,0,1,.085-.136.208.208,0,0,1,.156-.035l.041.007a28.941,28.941,0,0,1,19.656,13.657L231.6,132.3a.208.208,0,0,1-.056.275L222.1,139.45A.206.206,0,0,1,221.982,139.49Zm-21.351-39.475c-1.224,7.888,1.39,16.186,7.189,22.8L222.013,139l9.13-6.649-11.308-18.908A28.528,28.528,0,0,0,200.631,100.014Z" transform="translate(-199.919 -99.563)"/>
          </g>
          <g id="Group_189" data-name="Group 189" transform="translate(8.567 12.496)">
            <path id="Path_166" data-name="Path 166" d="M221.178,134.476a3.15,3.15,0,1,1,4.4.692A3.149,3.149,0,0,1,221.178,134.476Z" transform="translate(-220.368 -129.263)" fill="#fff"/>
            <path id="Path_167" data-name="Path 167" d="M223.449,135.7a3.356,3.356,0,1,1,1.972-.642A3.355,3.355,0,0,1,223.449,135.7Zm-.011-6.3a2.943,2.943,0,0,0-2.372,4.674h0a2.942,2.942,0,1,0,2.835-4.638A3,3,0,0,0,223.438,129.4Z" transform="translate(-220.088 -128.981)"/>
          </g>
          <g id="Group_190" data-name="Group 190" transform="translate(22.586 33.25)">
            <rect id="Rectangle_57" data-name="Rectangle 57" width="9.729" height="3.356" transform="translate(0.208 5.935) rotate(-36.063)" fill="#fff"/>
            <path id="Path_168" data-name="Path 168" d="M255.274,186.7a.208.208,0,0,1-.168-.085L253.13,183.9a.207.207,0,0,1,.045-.29l7.864-5.727a.209.209,0,0,1,.155-.037.206.206,0,0,1,.136.083l1.976,2.713a.208.208,0,0,1-.046.291l-7.864,5.727A.208.208,0,0,1,255.274,186.7Zm-1.686-2.875,1.731,2.377,7.528-5.482-1.731-2.377Z" transform="translate(-253.09 -177.839)"/>
          </g>
          <g id="Group_191" data-name="Group 191" transform="translate(1.568 5.063)">
            <path id="Path_169" data-name="Path 169" d="M203.681,119.413a.069.069,0,0,1-.041-.125l10.7-7.793a.07.07,0,0,1,.1.015.069.069,0,0,1-.015.1l-10.7,7.793A.068.068,0,0,1,203.681,119.413Z" transform="translate(-203.611 -111.481)"/>
          </g>
        </g>
        <g id="Group_193" data-name="Group 193" transform="translate(28.754 45.812)">
          <path id="Path_170" data-name="Path 170" d="M269.791,215.1a.208.208,0,0,1-.206-.181,28.316,28.316,0,0,0-1.958-7.224.208.208,0,1,1,.384-.161A28.75,28.75,0,0,1,270,214.869a.208.208,0,0,1-.179.233Z" transform="translate(-267.611 -207.411)"/>
        </g>
        <g id="Group_194" data-name="Group 194" transform="translate(27.008 42.786)">
          <path id="Path_171" data-name="Path 171" d="M264.607,202.148a.207.207,0,0,1-.177-.1l-.9-1.446a.208.208,0,0,1,.353-.22l.9,1.446a.208.208,0,0,1-.176.318Z" transform="translate(-263.499 -200.287)"/>
        </g>
        <g id="Group_195" data-name="Group 195" transform="translate(30.744 55.459)">
          <path id="Path_172" data-name="Path 172" d="M273.251,234.289a.209.209,0,0,1-.147-.061,3.03,3.03,0,0,1-.8-1.918,8.557,8.557,0,0,1,.159-2.012.208.208,0,1,1,.41.065,8.25,8.25,0,0,0-.155,1.914,2.617,2.617,0,0,0,.676,1.657.208.208,0,0,1-.147.355Z" transform="translate(-272.294 -230.122)"/>
        </g>
        <g id="Group_196" data-name="Group 196" transform="translate(31.878 39.54)">
          <path id="Path_173" data-name="Path 173" d="M280.092,199.107a.208.208,0,0,1-.151-.065,50.724,50.724,0,0,1-4.939-6.07.208.208,0,1,1,.342-.237,50.3,50.3,0,0,0,4.9,6.02.208.208,0,0,1-.151.351Z" transform="translate(-274.965 -192.646)"/>
        </g>
        <g id="Group_197" data-name="Group 197" transform="translate(38.799 46.825)">
          <path id="Path_174" data-name="Path 174" d="M293.358,211.022a.2.2,0,0,1-.082-.017l-1.893-.811a.208.208,0,1,1,.164-.382l1.893.811a.208.208,0,0,1-.082.4Z" transform="translate(-291.258 -209.796)"/>
        </g>
        <g id="Group_198" data-name="Group 198" transform="translate(24.842 61.646)">
          <path id="Path_175" data-name="Path 175" d="M273.073,259.818q-.231,0-.463-.02a6.078,6.078,0,0,1-5.328-5.31,5.022,5.022,0,0,1-8.85-2.657c-.291-2.6,1.429-4.939,3.33-7.074a.208.208,0,0,1,.311.277c-1.838,2.063-3.5,4.309-3.228,6.751a4.609,4.609,0,0,0,8.442,2,.208.208,0,0,1,.382.116,5.455,5.455,0,0,0,10.835.954.211.211,0,0,1,.216-.173,5.774,5.774,0,0,0,5.821-7.471.208.208,0,0,1,.4-.123,6.189,6.189,0,0,1-6.058,8.016A6.087,6.087,0,0,1,273.073,259.818Z" transform="translate(-258.4 -244.687)"/>
        </g>
        <g id="Group_199" data-name="Group 199" transform="translate(43.55 40.039)">
          <path id="Path_176" data-name="Path 176" d="M313.308,207.13a.208.208,0,0,1-.1-.389,3.561,3.561,0,0,0-2.015-6.643c-.35.025-.879.061-1.1-.354a.994.994,0,0,1-.029-.689,4.557,4.557,0,0,0-.278-3.347,3.43,3.43,0,0,0-3.544-1.41,6.082,6.082,0,0,0-3.428,2.212.208.208,0,1,1-.32-.266,6.486,6.486,0,0,1,3.674-2.355,3.849,3.849,0,0,1,3.976,1.605,4.937,4.937,0,0,1,.328,3.647.68.68,0,0,0-.011.407c.088.164.384.158.706.136a3.978,3.978,0,0,1,2.25,7.419A.208.208,0,0,1,313.308,207.13Z" transform="translate(-302.441 -193.82)"/>
        </g>
        <g id="Group_200" data-name="Group 200" transform="translate(29.946 42.273)">
          <path id="Path_177" data-name="Path 177" d="M275.956,208.525a.208.208,0,0,1-.176-.1c-1.853-2.951-3.649-5.992-5.338-9.039a.208.208,0,0,1,.364-.2c1.685,3.04,3.477,6.074,5.327,9.019a.208.208,0,0,1-.176.318Z" transform="translate(-270.415 -199.08)"/>
        </g>
        <g id="Group_201" data-name="Group 201" transform="translate(36.544 53.273)">
          <path id="Path_178" data-name="Path 178" d="M287.914,228.02a.207.207,0,0,1-.173-.092l-1.758-2.629a.208.208,0,1,1,.346-.232l1.758,2.629a.208.208,0,0,1-.173.324Z" transform="translate(-285.948 -224.975)"/>
        </g>
      </g>
      <g id="Group_203" data-name="Group 203" transform="translate(7.564 48.333)">
        <path id="Path_179" data-name="Path 179" d="M146.649,161.17a1.444,1.444,0,1,1,1.444-1.444A1.445,1.445,0,0,1,146.649,161.17Zm0-2.472a1.028,1.028,0,1,0,1.028,1.028A1.029,1.029,0,0,0,146.649,158.7Z" transform="translate(-145.205 -158.282)"/>
      </g>
      <g id="Group_204" data-name="Group 204" transform="translate(255.892 64.839)">
        <path id="Path_180" data-name="Path 180" d="M731.247,200.026a1.444,1.444,0,1,1,1.444-1.444A1.445,1.445,0,0,1,731.247,200.026Zm0-2.471a1.028,1.028,0,1,0,1.028,1.028A1.029,1.029,0,0,0,731.247,197.555Z" transform="translate(-729.803 -197.139)"/>
      </g>
      <g id="Group_205" data-name="Group 205" transform="translate(136.894 127.409)">
        <path id="Path_181" data-name="Path 181" d="M451.11,347.325a1.444,1.444,0,1,1,1.444-1.444A1.446,1.446,0,0,1,451.11,347.325Zm0-2.472a1.028,1.028,0,1,0,1.028,1.028A1.029,1.029,0,0,0,451.11,344.853Z" transform="translate(-449.666 -344.437)"/>
      </g>
      <g id="Group_206" data-name="Group 206" transform="translate(104.67 88.667)">
        <path id="Path_182" data-name="Path 182" d="M375.249,256.121a1.444,1.444,0,1,1,1.444-1.444A1.445,1.445,0,0,1,375.249,256.121Zm0-2.472a1.028,1.028,0,1,0,1.028,1.028A1.029,1.029,0,0,0,375.249,253.649Z" transform="translate(-373.805 -253.233)"/>
      </g>
      <g id="Group_207" data-name="Group 207" transform="translate(111.995 22.672)">
        <path id="Path_183" data-name="Path 183" d="M393.365,102.5a2.314,2.314,0,1,1,2.314-2.314A2.317,2.317,0,0,1,393.365,102.5Zm0-4.213a1.9,1.9,0,1,0,1.9,1.9A1.9,1.9,0,0,0,393.365,98.287Z" transform="translate(-391.05 -97.871)"/>
      </g>
      <g id="Group_208" data-name="Group 208" transform="translate(230.733 77.958)">
        <path id="Path_184" data-name="Path 184" d="M670.782,245.113a.208.208,0,0,1-.08-.4l5.206-2.17.959-5.8a.208.208,0,0,1,.2-.173l5.83-.26,3.782-8.169a.208.208,0,0,1,.378.175l-3.836,8.284a.207.207,0,0,1-.179.12l-5.789.258-.95,5.744a.207.207,0,0,1-.125.158l-5.312,2.215A.211.211,0,0,1,670.782,245.113Z" transform="translate(-670.574 -228.023)"/>
      </g>
      <g id="Group_209" data-name="Group 209" transform="translate(44.255 113.462)">
        <path id="Path_185" data-name="Path 185" d="M231.789,328.3a.214.214,0,0,1-.058-.008.207.207,0,0,1-.141-.258l3.174-10.889a.208.208,0,0,1,.254-.142l7.079,1.922,3.34-6.578a.208.208,0,0,1,.168-.113l7.209-.624a.208.208,0,1,1,.036.414l-7.094.613-3.365,6.626a.207.207,0,0,1-.24.107l-7.045-1.913-3.117,10.694A.208.208,0,0,1,231.789,328.3Z" transform="translate(-231.581 -311.604)"/>
      </g>
      <g id="Group_210" data-name="Group 210" transform="translate(198.427 68.383)">
        <rect id="Rectangle_58" data-name="Rectangle 58" width="3.107" height="3.107" transform="translate(2.405 0.208) rotate(45)"/>
        <path id="Path_186" data-name="Path 186" d="M596.927,210.291a.208.208,0,0,1-.147-.061l-2.2-2.2a.208.208,0,0,1,0-.294l2.2-2.2a.208.208,0,0,1,.147-.061h0a.208.208,0,0,1,.147.061l2.2,2.2a.207.207,0,0,1,0,.294l-2.2,2.2A.209.209,0,0,1,596.927,210.291Zm-1.9-2.4,1.9,1.9,1.9-1.9-1.9-1.9Z" transform="translate(-594.522 -205.482)"/>
      </g>
      <g id="Group_211" data-name="Group 211" transform="translate(59.048 16.934)">
        <rect id="Rectangle_59" data-name="Rectangle 59" width="3.107" height="3.107" transform="matrix(0.707, 0.707, -0.707, 0.707, 2.405, 0.208)"/>
        <path id="Path_187" data-name="Path 187" d="M268.811,89.173a.209.209,0,0,1-.147-.061l-2.2-2.2a.207.207,0,0,1,0-.294l2.2-2.2a.208.208,0,0,1,.294,0l2.2,2.2a.207.207,0,0,1,0,.294l-2.2,2.2A.209.209,0,0,1,268.811,89.173Zm-1.9-2.4,1.9,1.9,1.9-1.9-1.9-1.9Z" transform="translate(-266.406 -84.364)"/>
      </g>
      <g id="Group_212" data-name="Group 212" transform="translate(158.483 113.835)">
        <path id="Path_188" data-name="Path 188" d="M509.485,329.337a.208.208,0,0,1-.014-.415,8.014,8.014,0,0,0,1.6-.269.208.208,0,1,1,.11.4,8.438,8.438,0,0,1-1.678.283Zm-1.659-.055-.028,0a8.422,8.422,0,0,1-1.655-.4.208.208,0,1,1,.137-.392,8,8,0,0,0,1.574.376.208.208,0,0,1-.028.414Zm4.844-.822a.208.208,0,0,1-.095-.393,8.043,8.043,0,0,0,1.36-.878.208.208,0,0,1,.259.325,8.461,8.461,0,0,1-1.43.923A.2.2,0,0,1,512.67,328.46Zm-7.962-.269a.207.207,0,0,1-.107-.03,8.476,8.476,0,0,1-1.365-1.017.208.208,0,1,1,.281-.307,8.052,8.052,0,0,0,1.3.967.208.208,0,0,1-.107.387Zm10.544-1.792a.206.206,0,0,1-.133-.048.208.208,0,0,1-.026-.293,8.01,8.01,0,0,0,.908-1.34.208.208,0,0,1,.366.2,8.512,8.512,0,0,1-.955,1.409A.208.208,0,0,1,515.252,326.4Zm-12.982-.438a.206.206,0,0,1-.168-.086,8.433,8.433,0,0,1-.858-1.47.208.208,0,1,1,.379-.172,8.021,8.021,0,0,0,.815,1.4.208.208,0,0,1-.168.331Zm14.549-2.471a.21.21,0,0,1-.06-.009.207.207,0,0,1-.139-.259,8.024,8.024,0,0,0,.305-1.589.208.208,0,1,1,.414.037,8.415,8.415,0,0,1-.321,1.672A.208.208,0,0,1,516.819,323.491Zm-15.917-.536a.208.208,0,0,1-.2-.162,8.491,8.491,0,0,1-.208-1.689.219.219,0,0,0,0-.189,8.518,8.518,0,0,1,.17-1.694.208.208,0,0,1,.408.083,8.067,8.067,0,0,0-.162,1.61.2.2,0,0,1-.02.09.213.213,0,0,1,.023.09,8.046,8.046,0,0,0,.2,1.606.208.208,0,0,1-.157.249A.2.2,0,0,1,500.9,322.954Zm16.211-2.754a.208.208,0,0,1-.206-.185,8.018,8.018,0,0,0-.341-1.582.208.208,0,0,1,.4-.128,8.408,8.408,0,0,1,.358,1.664.208.208,0,0,1-.184.23Zm-15.755-2.315a.214.214,0,0,1-.082-.017.208.208,0,0,1-.109-.273,8.445,8.445,0,0,1,.825-1.489.208.208,0,1,1,.342.237,8,8,0,0,0-.784,1.416A.208.208,0,0,1,501.358,317.885Zm14.736-.827a.208.208,0,0,1-.181-.105,8.045,8.045,0,0,0-.938-1.319.208.208,0,0,1,.313-.274,8.471,8.471,0,0,1,.986,1.387.208.208,0,0,1-.181.311Zm-12.852-1.888a.206.206,0,0,1-.15-.064.208.208,0,0,1,.006-.294,8.528,8.528,0,0,1,1.342-1.047.208.208,0,0,1,.222.352,8.058,8.058,0,0,0-1.276,1A.207.207,0,0,1,503.242,315.171Zm10.678-.6a.207.207,0,0,1-.126-.043,8.041,8.041,0,0,0-1.379-.847.208.208,0,0,1,.181-.375,8.459,8.459,0,0,1,1.451.891.208.208,0,0,1-.126.373Zm-7.882-1.16a.208.208,0,0,1-.073-.4,8.364,8.364,0,0,1,1.646-.433.208.208,0,1,1,.065.411,8.008,8.008,0,0,0-1.565.412A.2.2,0,0,1,506.038,313.412Zm4.906-.275a.23.23,0,0,1-.05-.006,8.033,8.033,0,0,0-1.6-.234.208.208,0,0,1-.2-.217.205.205,0,0,1,.217-.2,8.445,8.445,0,0,1,1.684.246.208.208,0,0,1-.051.409Z" transform="translate(-500.49 -312.481)"/>
      </g>
      <g id="Group_213" data-name="Group 213" transform="translate(214.61 25.721)">
        <path id="Path_189" data-name="Path 189" d="M635.607,111.1h0a3.012,3.012,0,0,1-1.677-.533.208.208,0,0,1,.236-.342,2.594,2.594,0,0,0,1.446.46.208.208,0,0,1,0,.416Zm1.574-.457a.208.208,0,0,1-.114-.382,2.607,2.607,0,0,0,.976-1.164.208.208,0,1,1,.382.163,3.018,3.018,0,0,1-1.13,1.349A.208.208,0,0,1,637.181,110.638Zm-4.157-1.322a.208.208,0,0,1-.193-.131,3.029,3.029,0,0,1,.3-2.8.208.208,0,0,1,.345.232,2.613,2.613,0,0,0-.259,2.412.208.208,0,0,1-.193.285Zm5.384-1.564a.207.207,0,0,1-.2-.169,2.592,2.592,0,0,0-.707-1.343.208.208,0,1,1,.3-.292,3.005,3.005,0,0,1,.819,1.558.207.207,0,0,1-.165.243A.2.2,0,0,1,638.408,107.752Zm-3.835-2.077a.208.208,0,0,1-.079-.4,3.009,3.009,0,0,1,1.148-.226h0a3.081,3.081,0,0,1,.6.06.208.208,0,0,1-.082.408,2.639,2.639,0,0,0-.521-.052h0a2.587,2.587,0,0,0-.989.195A.209.209,0,0,1,634.573,105.675Z" transform="translate(-632.619 -105.049)"/>
      </g>
      <g id="Group_256" data-name="Group 256" transform="translate(81.828 0)">
        <g id="Group_214" data-name="Group 214" transform="translate(21.808 55.541)">
          <path id="Path_190" data-name="Path 190" d="M374.762,250.714a3.452,3.452,0,0,1-2.751-.985c-2.156-2.515,1.559-8.777,5.055-13.587,4.817-6.627,12.412-14.9,21.387-23.29a.208.208,0,0,1,.284.3c-18.5,17.3-29.61,32.568-26.41,36.3,1.788,2.087,8.073.285,17.245-4.943,9.392-5.352,20.843-13.681,32.245-23.452S443.2,201.251,449.93,192.79c6.57-8.263,9.313-14.2,7.525-16.285-1.806-2.107-8.18-.254-17.489,5.083a.208.208,0,1,1-.207-.361c9.638-5.526,16.035-7.3,18.012-4.993,1.958,2.285-.711,8.256-7.515,16.814-6.743,8.482-16.747,18.543-28.168,28.331s-22.9,18.133-32.31,23.5C383.017,248.73,377.872,250.714,374.762,250.714Z" transform="translate(-371.373 -175.249)"/>
        </g>
        <g id="Group_227" data-name="Group 227" transform="translate(44.803)">
          <g id="Group_215" data-name="Group 215" transform="translate(6.763 25.606)">
            <path id="Path_191" data-name="Path 191" d="M444.382,109.518a33.218,33.218,0,0,1,.626,7.346l-2.977,1.157s-1.826,7.506,9.68,5.206c2.235-.447,8.707-5.362,8.707-5.362L455.3,116.4s-.49-7.439-.686-11.135A94.591,94.591,0,0,1,444.382,109.518Z" transform="translate(-441.713 -105.059)" fill="#fff"/>
            <path id="Path_192" data-name="Path 192" d="M447.5,123.593c-2.222,0-3.86-.539-4.891-1.614a4.921,4.921,0,0,1-1.066-4.289.208.208,0,0,1,.127-.145l2.848-1.106a32.77,32.77,0,0,0-.624-7.155.208.208,0,0,1,.141-.246,95.971,95.971,0,0,0,10.207-4.241.208.208,0,0,1,.3.178c.178,3.367.606,9.926.676,10.986l4.977,1.423a.208.208,0,0,1,.068.366c-.265.2-6.535,4.949-8.792,5.4A20.484,20.484,0,0,1,447.5,123.593Zm-5.574-5.7a4.514,4.514,0,0,0,.985,3.8c1.467,1.526,4.318,1.878,8.473,1.048,1.877-.375,6.938-4.069,8.288-5.073l-4.714-1.348a.207.207,0,0,1-.15-.186c0-.073-.467-7.084-.669-10.831a95.824,95.824,0,0,1-9.8,4.073,34.178,34.178,0,0,1,.588,7.213.209.209,0,0,1-.133.186Zm2.8-1.309h0Z" transform="translate(-441.427 -104.778)"/>
          </g>
          <g id="Group_217" data-name="Group 217">
            <g id="Group_216" data-name="Group 216">
              <path id="Path_193" data-name="Path 193" d="M428.174,54.145a1.927,1.927,0,0,1-2.121-1.938,3.051,3.051,0,0,1,1.738-2.637,10.005,10.005,0,0,1,3.176-.707,2.846,2.846,0,0,1,1.015-3.1,4.378,4.378,0,0,1,3.219-.728,3.939,3.939,0,0,1,2.048.787,2.591,2.591,0,0,1,.94,2.065,3.614,3.614,0,0,1,6.746,1.717,3.511,3.511,0,0,1,2.778-1.554c2.206.119,2.7,1.994,1.711,4.407a2.546,2.546,0,0,1,3.483,1.634,5.075,5.075,0,0,1-.935,4.287,2.518,2.518,0,0,1-.649.493c-.344,1.887-.773,3.863-1.423,6.353a22.741,22.741,0,0,1-2.237,5.434,3.254,3.254,0,0,1-1.7,1.567c-.05-.781-.864-1.169-.991-1.946-.155-.955.46-1.8-.116-2.643a13.982,13.982,0,0,1-2.2-5.2,6.811,6.811,0,0,1,.4-4.433,4.771,4.771,0,0,1,1.042-1.344,8.031,8.031,0,0,1-.467-1.169,4.293,4.293,0,0,1-2.738,2.4,2.351,2.351,0,0,1-2.983-1.209,4.729,4.729,0,0,1-3.13,2.854c-1.11.113-1.527-.4-1.974-1.465a10.127,10.127,0,0,1-2.731,2.146,3.141,3.141,0,0,1-3.948-2A3.38,3.38,0,0,1,428.174,54.145Z" transform="translate(-425.791 -44.78)" fill="#ffd42e"/>
              <path id="Path_194" data-name="Path 194" d="M445.678,72.149a.207.207,0,0,1-.208-.195,1.68,1.68,0,0,0-.45-.895,2.268,2.268,0,0,1-.539-1.031,3.484,3.484,0,0,1,.057-1.163,1.755,1.755,0,0,0-.141-1.4,14.1,14.1,0,0,1-2.227-5.273,6.9,6.9,0,0,1,.423-4.566,4.971,4.971,0,0,1,.974-1.3c-.094-.2-.181-.407-.263-.627a4.219,4.219,0,0,1-2.623,2.107,2.638,2.638,0,0,1-3.016-.884,5.021,5.021,0,0,1-3.14,2.538,1.827,1.827,0,0,1-2.07-1.325c-.165.151-.324.3-.48.45a6.655,6.655,0,0,1-2.1,1.543,3.149,3.149,0,0,1-2.474-.156A3.344,3.344,0,0,1,425.653,58a3.639,3.639,0,0,1,1.421-3.975,1.968,1.968,0,0,1-.6-.323,2.363,2.363,0,0,1-.909-1.777,3.276,3.276,0,0,1,1.852-2.826,7.887,7.887,0,0,1,2.638-.648l.361-.046a3.115,3.115,0,0,1,1.159-3.095,4.563,4.563,0,0,1,3.371-.77,4.119,4.119,0,0,1,2.155.833,2.8,2.8,0,0,1,.983,1.708,4.193,4.193,0,0,1,3.9-1.383,4.335,4.335,0,0,1,2.8,3.148,3.4,3.4,0,0,1,2.656-1.292,2.411,2.411,0,0,1,2.025,1.033,3.777,3.777,0,0,1,.032,3.229,2.711,2.711,0,0,1,1.722.131,2.858,2.858,0,0,1,1.6,1.79,5.266,5.266,0,0,1-.978,4.49,2.574,2.574,0,0,1-.616.487c-.368,2.006-.816,4-1.409,6.274a22.866,22.866,0,0,1-2.259,5.486,3.449,3.449,0,0,1-1.793,1.651A.207.207,0,0,1,445.678,72.149ZM443.356,55h.023a.208.208,0,0,1,.175.144,7.8,7.8,0,0,0,.455,1.138.208.208,0,0,1-.046.247,4.587,4.587,0,0,0-1,1.285,6.506,6.506,0,0,0-.386,4.3,13.688,13.688,0,0,0,2.163,5.117,2.13,2.13,0,0,1,.207,1.7,3.143,3.143,0,0,0-.057,1.028,1.92,1.92,0,0,0,.457.843,2.52,2.52,0,0,1,.485.827,2.987,2.987,0,0,0,1.366-1.363,22.426,22.426,0,0,0,2.215-5.382c.6-2.3,1.05-4.31,1.42-6.338a.209.209,0,0,1,.1-.144,2.31,2.31,0,0,0,.595-.449,4.868,4.868,0,0,0,.893-4.083,2.446,2.446,0,0,0-1.369-1.536,2.23,2.23,0,0,0-1.825.024.208.208,0,0,1-.284-.265,3.708,3.708,0,0,0,.165-3.28,1.99,1.99,0,0,0-1.7-.84,3.245,3.245,0,0,0-2.605,1.478.209.209,0,0,1-.222.068.207.207,0,0,1-.146-.18,3.989,3.989,0,0,0-2.556-3.232,3.914,3.914,0,0,0-3.82,1.626.208.208,0,0,1-.371-.137,2.4,2.4,0,0,0-.864-1.9,3.716,3.716,0,0,0-1.942-.741,4.158,4.158,0,0,0-3.066.686,2.633,2.633,0,0,0-.947,2.865.208.208,0,0,1-.165.279c-.2.029-.406.055-.61.081a7.469,7.469,0,0,0-2.5.606,2.855,2.855,0,0,0-1.624,2.448,1.938,1.938,0,0,0,.747,1.456,1.317,1.317,0,0,0,1.118.283.208.208,0,0,1,.111.4,3.181,3.181,0,0,0-1.9,3.818,2.924,2.924,0,0,0,1.531,1.725,2.727,2.727,0,0,0,2.146.141,6.266,6.266,0,0,0,1.964-1.456c.223-.212.455-.432.7-.651a.208.208,0,0,1,.33.075c.422,1.006.777,1.438,1.762,1.339a4.517,4.517,0,0,0,2.948-2.692.208.208,0,0,1,.4-.024,2.157,2.157,0,0,0,2.722,1.081,4.1,4.1,0,0,0,2.623-2.311A.208.208,0,0,1,443.356,55Z" transform="translate(-425.506 -44.499)"/>
            </g>
          </g>
          <g id="Group_219" data-name="Group 219" transform="translate(3.029 10.504)">
            <g id="Group_218" data-name="Group 218">
              <path id="Path_195" data-name="Path 195" d="M433.979,74.688c0-.057,0-.116,0-.175.068-.02.136-.041.2-.066a10.128,10.128,0,0,0,2.731-2.146c.447,1.065.864,1.578,1.974,1.465a4.729,4.729,0,0,0,3.13-2.854A2.351,2.351,0,0,0,445,72.121a4.293,4.293,0,0,0,2.738-2.4,5.869,5.869,0,0,0,2.141,3.163,4.5,4.5,0,0,0,1.423.672c.017.218.037.429.06.631a18.542,18.542,0,0,1,.105,4.016c1.26-1.046,2.3-.871,3.085-.079a2,2,0,0,1-.048,2.821,3.7,3.7,0,0,1-3.29.825c-.307,1.989-.764,5.974-2.146,7.735a8.9,8.9,0,0,1-6.759,3.117,9.466,9.466,0,0,1-7.034-2.889,9.832,9.832,0,0,1-2.12-7.373C433.313,79.789,433.971,77.26,433.979,74.688Z" transform="translate(-432.918 -69.509)" fill="#fff"/>
              <path id="Path_196" data-name="Path 196" d="M441.873,92.544a9.641,9.641,0,0,1-7.032-2.958c-1.636-1.818-2.367-4.35-2.173-7.525.069-1.127.235-2.26.4-3.357a30.437,30.437,0,0,0,.425-4.3h0c0-.058,0-.118,0-.178a.209.209,0,0,1,.15-.2c.063-.018.125-.037.187-.061a6.264,6.264,0,0,0,1.965-1.456c.223-.212.455-.432.7-.651a.208.208,0,0,1,.33.075c.422,1.006.777,1.438,1.762,1.339a4.517,4.517,0,0,0,2.948-2.692.208.208,0,0,1,.4-.024,2.157,2.157,0,0,0,2.722,1.081,4.1,4.1,0,0,0,2.623-2.311.208.208,0,0,1,.378.042,5.723,5.723,0,0,0,2.064,3.056,4.3,4.3,0,0,0,1.357.64.209.209,0,0,1,.152.184c.02.246.039.445.059.624l.006.051a19.653,19.653,0,0,1,.14,3.545,2.169,2.169,0,0,1,2.987.219,2.2,2.2,0,0,1-.048,3.112,3.856,3.856,0,0,1-3.265.922q-.033.218-.068.46c-.324,2.205-.813,5.537-2.088,7.161a9.1,9.1,0,0,1-6.919,3.2Zm-7.967-18.137a30.748,30.748,0,0,1-.429,4.357c-.16,1.088-.326,2.213-.393,3.321-.187,3.06.508,5.49,2.067,7.221a9.21,9.21,0,0,0,6.722,2.821h.154a8.671,8.671,0,0,0,6.6-3.037c1.206-1.537,1.705-4.935,2-6.965.036-.243.069-.469.1-.674a.208.208,0,0,1,.249-.172,3.471,3.471,0,0,0,3.1-.767,1.789,1.789,0,0,0,.048-2.529c-.8-.815-1.748-.784-2.8.093a.208.208,0,0,1-.339-.182,18.229,18.229,0,0,0-.1-3.919l-.006-.051c-.017-.148-.033-.308-.049-.5a4.681,4.681,0,0,1-1.348-.662,5.865,5.865,0,0,1-2.071-2.836,4.22,4.22,0,0,1-2.623,2.107,2.638,2.638,0,0,1-3.016-.884,5.021,5.021,0,0,1-3.14,2.538,1.827,1.827,0,0,1-2.07-1.325c-.165.151-.324.3-.48.45a6.655,6.655,0,0,1-2.1,1.543l-.07.025v.023Z" transform="translate(-432.637 -69.227)"/>
            </g>
          </g>
          <g id="Group_220" data-name="Group 220" transform="translate(6.472 18.762)">
            <path id="Path_197" data-name="Path 197" d="M440.745,89.312a.609.609,0,1,1,.67.5A.592.592,0,0,1,440.745,89.312Z" transform="translate(-440.742 -88.667)"/>
          </g>
          <g id="Group_221" data-name="Group 221" transform="translate(14.952 19.22)">
            <path id="Path_198" data-name="Path 198" d="M460.708,90.389a.609.609,0,1,1,.669.5A.592.592,0,0,1,460.708,90.389Z" transform="translate(-460.705 -89.744)"/>
          </g>
          <g id="Group_222" data-name="Group 222" transform="translate(11.499 28.367)">
            <path id="Path_199" data-name="Path 199" d="M453.51,112.72a3.049,3.049,0,0,1-.78-.1.208.208,0,1,1,.106-.4,2.8,2.8,0,0,0,2.787-.868.208.208,0,1,1,.316.271A3.229,3.229,0,0,1,453.51,112.72Z" transform="translate(-452.576 -111.277)"/>
          </g>
          <g id="Group_223" data-name="Group 223" transform="translate(8.73 18.745)">
            <path id="Path_200" data-name="Path 200" d="M448.317,96.5a3.807,3.807,0,0,1-1.28-.241,1.612,1.612,0,0,1-.7-.426,1.332,1.332,0,0,1-.242-1.161,3.742,3.742,0,0,1,.346-.881l.062-.125a10.958,10.958,0,0,0,1.1-4.834.208.208,0,0,1,.207-.209h0a.208.208,0,0,1,.208.207,11.373,11.373,0,0,1-1.146,5.018l-.063.127a3.4,3.4,0,0,0-.312.783.936.936,0,0,0,.149.8,1.245,1.245,0,0,0,.526.307,3.093,3.093,0,0,0,1.505.19,1.806,1.806,0,0,0,1.223-.724.208.208,0,1,1,.345.232,2.194,2.194,0,0,1-1.505.9A2.781,2.781,0,0,1,448.317,96.5Z" transform="translate(-446.058 -88.626)"/>
          </g>
          <g id="Group_224" data-name="Group 224" transform="translate(21.236 18.536)">
            <path id="Path_201" data-name="Path 201" d="M475.707,90.308l-.028,0a.207.207,0,0,1-.179-.233c.092-.7.126-1.072.189-1.749a.208.208,0,1,1,.414.038c-.063.683-.1,1.059-.191,1.766A.207.207,0,0,1,475.707,90.308Z" transform="translate(-475.499 -88.135)"/>
          </g>
          <g id="Group_225" data-name="Group 225" transform="translate(1.229 11.613)">
            <path id="Path_202" data-name="Path 202" d="M429.084,74.2a.069.069,0,0,1-.05-.021,2.308,2.308,0,0,1-.524-2.293.069.069,0,1,1,.132.044,2.165,2.165,0,0,0,.492,2.152.069.069,0,0,1-.05.118Z" transform="translate(-428.399 -71.837)"/>
          </g>
          <g id="Group_226" data-name="Group 226" transform="translate(24.281 9.445)">
            <path id="Path_203" data-name="Path 203" d="M482.737,70.469a.069.069,0,0,1-.046-.121,3.338,3.338,0,0,0,.921-3.523.069.069,0,0,1,.043-.088.069.069,0,0,1,.088.042,3.48,3.48,0,0,1-.96,3.672A.07.07,0,0,1,482.737,70.469Z" transform="translate(-482.668 -66.733)"/>
          </g>
        </g>
        <g id="Group_234" data-name="Group 234" transform="translate(0 15.176)">
          <g id="Group_228" data-name="Group 228">
            <path id="Path_204" data-name="Path 204" d="M334.747,120.473c-2.543-5.848-5.523-16.609-8.539-22.325a16.429,16.429,0,0,1-5.3-5.588c-.465-.881-.537-1.265-.046-2.03a1.531,1.531,0,0,1,1.772-.373c-.359-.541-1.035-.958-.43-1.712a1.038,1.038,0,0,1,1.119-.429c-.445-1.153.741-2.139,1.731-1.149-.881-1.353-1.683-2.562-2.561-3.8-.544-.766-1.11-1.7-.655-2.155.583-.583,1.468.212,2.524,1.472a56.872,56.872,0,0,0,4.283,4.751c1.774,1.774,3.666,5.328,2.928,6.942.592,2.457,9.565,16.7,12.507,19.645,1.074,1.074.2,2.109-.055,3.606-.305,1.81-1.626,8.18-6.221,6.108A9.427,9.427,0,0,1,334.747,120.473Z" transform="translate(-320.317 -80.507)" fill="#fff"/>
            <path id="Path_205" data-name="Path 205" d="M339.234,123.77a4.388,4.388,0,0,1-1.8-.428,9.461,9.461,0,0,1-3.163-3.068h0c-1.058-2.433-2.18-5.68-3.368-9.118a106.721,106.721,0,0,0-5.139-13.145,16.781,16.781,0,0,1-5.324-5.637c-.5-.946-.575-1.4-.037-2.24a1.508,1.508,0,0,1,1.432-.581,1.062,1.062,0,0,1-.078-1.522,1.361,1.361,0,0,1,1-.553,1.306,1.306,0,0,1,.54-1.328,1.138,1.138,0,0,1,.838-.162c-.651-.992-1.348-2.033-2.095-3.084-.627-.883-1.192-1.862-.632-2.423a.815.815,0,0,1,.633-.255c.546.024,1.183.528,2.2,1.74l.042.05a56.072,56.072,0,0,0,4.229,4.688c1.726,1.726,3.722,5.318,3,7.105.694,2.476,9.438,16.484,12.435,19.481.861.861.588,1.73.3,2.65a8.423,8.423,0,0,0-.3,1.138c-.318,1.886-1.161,5.216-3.238,6.324A3.088,3.088,0,0,1,339.234,123.77ZM321.659,89.962a1.038,1.038,0,0,0-.9.4c-.438.683-.386.985.055,1.821a16.324,16.324,0,0,0,5.227,5.51.21.21,0,0,1,.072.078,106.125,106.125,0,0,1,5.19,13.252c1.185,3.43,2.3,6.67,3.356,9.088h0a9.292,9.292,0,0,0,2.952,2.855,3.185,3.185,0,0,0,2.907.072c1.92-1.024,2.718-4.215,3.023-6.026a8.926,8.926,0,0,1,.311-1.194c.282-.9.485-1.548-.2-2.231-2.883-2.883-11.923-17.09-12.562-19.743a.206.206,0,0,1,.013-.136c.664-1.453-1.035-4.858-2.886-6.708a56.538,56.538,0,0,1-4.254-4.716l-.041-.049c-.563-.672-1.372-1.569-1.9-1.592a.409.409,0,0,0-.32.134c-.387.387.414,1.516.678,1.887.93,1.31,1.783,2.6,2.566,3.807a.208.208,0,0,1-.321.261.857.857,0,0,0-1.1-.232.942.942,0,0,0-.29,1.158.208.208,0,0,1-.267.27.849.849,0,0,0-.884.364c-.354.442-.184.687.173,1.118a4.185,4.185,0,0,1,.269.349.208.208,0,0,1-.243.311A1.9,1.9,0,0,0,321.659,89.962Z" transform="translate(-320.033 -80.225)"/>
          </g>
          <g id="Group_229" data-name="Group 229" transform="translate(1.848 9.44)">
            <path id="Path_206" data-name="Path 206" d="M326.406,106.04a1.079,1.079,0,0,1-.386-.073,2.311,2.311,0,0,1-.679-.461l-.886-.776a.208.208,0,1,1,.274-.313l.886.776a1.977,1.977,0,0,0,.554.386.438.438,0,0,0,.624-.555,1.675,1.675,0,0,0-.359-.6,5.477,5.477,0,0,0-1.107-1.116c-.154-.121-.345-.273-.607-.492a.208.208,0,0,1,.267-.319c.257.216.446.365.6.485a5.853,5.853,0,0,1,1.171,1.179,2.056,2.056,0,0,1,.438.757.913.913,0,0,1-.254.941A.83.83,0,0,1,326.406,106.04Z" transform="translate(-324.384 -102.448)"/>
          </g>
          <g id="Group_230" data-name="Group 230" transform="translate(2.799 7.298)">
            <path id="Path_207" data-name="Path 207" d="M329.3,102.368a1.589,1.589,0,0,1-.578-.138c-.222-.089-.444-.186-.661-.288a.208.208,0,0,1,.177-.376c.21.1.425.192.639.279a.754.754,0,0,0,.574.075c.189-.1.231-.4.176-.658-.086-.394-.655-1.31-2.883-3.437l-.062-.06a.208.208,0,1,1,.287-.3l.063.059c1.875,1.791,2.858,2.985,3,3.649a.985.985,0,0,1-.393,1.116A.737.737,0,0,1,329.3,102.368Z" transform="translate(-326.623 -97.406)"/>
          </g>
          <g id="Group_231" data-name="Group 231" transform="translate(4.105 7.456)">
            <path id="Path_208" data-name="Path 208" d="M332.68,104.1a.208.208,0,0,1-.184-.111,3.144,3.144,0,0,1,.243-2.8c.124-.284.31-.713.236-.793a4.245,4.245,0,0,0-1.808-.393,2.784,2.784,0,0,1-.494-.061,1.377,1.377,0,0,1-.9-.709.709.709,0,0,1-.028-.559,1.773,1.773,0,0,1,.742-.77,11.6,11.6,0,0,1,2.942-.087c.147.006.275.012.375.015.429.014,1.691.472,1.839.977a.208.208,0,1,1-.4.117,2.664,2.664,0,0,0-1.454-.678l-.379-.016a12.421,12.421,0,0,0-2.793.066,1.5,1.5,0,0,0-.492.543.31.31,0,0,0,.028.222.986.986,0,0,0,.651.483c.042.012.232.028.4.042a3.79,3.79,0,0,1,2.077.523c.261.279.076.7-.158,1.243a2.78,2.78,0,0,0-.257,2.437.208.208,0,0,1-.184.305Z" transform="translate(-329.698 -97.777)"/>
          </g>
          <g id="Group_232" data-name="Group 232" transform="translate(4.461 6.043)">
            <path id="Path_209" data-name="Path 209" d="M331.966,96.279a.208.208,0,0,1-.18-.1,8.018,8.018,0,0,0-.791-.93c-.158-.17-.306-.33-.41-.452a.208.208,0,0,1,.317-.269c.1.115.243.272.4.439a7.845,7.845,0,0,1,.846,1,.208.208,0,0,1-.076.284A.2.2,0,0,1,331.966,96.279Z" transform="translate(-330.536 -94.451)"/>
          </g>
          <g id="Group_233" data-name="Group 233" transform="translate(5.98 9.571)">
            <path id="Path_210" data-name="Path 210" d="M334.426,104.724a.668.668,0,0,1-.157-.019.208.208,0,0,1,.1-.4.434.434,0,0,0,.413-.194.932.932,0,0,0-.116-1.033.208.208,0,1,1,.353-.22,1.278,1.278,0,0,1,.1,1.5A.882.882,0,0,1,334.426,104.724Z" transform="translate(-334.112 -102.756)"/>
          </g>
        </g>
        <g id="Group_236" data-name="Group 236" transform="translate(18.056 36.997)">
          <g id="Group_235" data-name="Group 235">
            <path id="Path_211" data-name="Path 211" d="M435.426,159.339c-1.6-8.405-1.611-17.428-8.382-23.08-3.25-2.713-10.955-3.884-15.472-4.174-.277,4.373-4.552,5.413-7.288,5.238-4.57-.294-5.383-1.192-6.544-4.662-1.025.409-7.2.719-11.206,4.3-7.44,6.647-17.184,5.613-17.715,6.144-.738.738,1.077,7.189-5.483,10.227-2.76,1.278,13.78,3.908,25.171.893-.427,5.961,3.061,22.471,4.3,29.165,11.882,8.286,34.973-.2,34.973-.2a37.058,37.058,0,0,1-1.869-9.649c0-2.057,7.2,2.2,8.152,2.369a1.415,1.415,0,0,0,1.165-.5C436.029,173.528,436.9,167.072,435.426,159.339Z" transform="translate(-362.822 -131.877)"/>
            <path id="Path_212" data-name="Path 212" d="M406.683,186.936c-5.021,0-10.284-.871-14.28-3.658a.207.207,0,0,1-.085-.133c-.2-1.067-.448-2.364-.738-3.867-1.533-7.939-3.835-19.859-3.579-25.062a56.052,56.052,0,0,1-16.226,1.2c-4.327-.264-8.88-1.01-9.21-1.924-.052-.143-.068-.416.4-.634,4.814-2.23,5.012-6.359,5.118-8.578.041-.853.065-1.367.306-1.607.164-.164.542-.2,1.711-.282,3.073-.221,10.27-.739,16.013-5.869,3.176-2.837,7.6-3.633,9.973-4.06a9.6,9.6,0,0,0,1.295-.278.208.208,0,0,1,.274.127c1.14,3.406,1.863,4.231,6.36,4.52a8.6,8.6,0,0,0,4.453-.888,4.8,4.8,0,0,0,2.613-4.155.208.208,0,0,1,.221-.195c5.264.338,12.506,1.646,15.592,4.222,5.56,4.641,6.63,11.653,7.666,18.434.24,1.569.488,3.192.787,4.767h0c1.409,7.405.706,14.038-.214,16.189a1.585,1.585,0,0,1-1.392.623,12.486,12.486,0,0,1-1.968-.863c-1.772-.857-5.071-2.453-5.817-1.985a.28.28,0,0,0-.123.274,37.1,37.1,0,0,0,1.857,9.583.208.208,0,0,1-.125.262,74.6,74.6,0,0,1-13.072,3.219A53.283,53.283,0,0,1,406.683,186.936Zm-13.972-3.951c6.082,4.19,15.163,3.9,21.722,2.923a74.941,74.941,0,0,0,12.8-3.131,36.625,36.625,0,0,1-1.815-9.522.691.691,0,0,1,.318-.626c.87-.545,3.332.566,6.219,1.963a14.939,14.939,0,0,0,1.859.828,1.29,1.29,0,0,0,.938-.377c.7-1.635,1.716-7.919.187-15.948h0c-.3-1.582-.549-3.209-.79-4.782-1.071-7.013-2.083-13.637-7.522-18.177-2.969-2.479-9.965-3.759-15.147-4.113a5.231,5.231,0,0,1-2.814,4.286,9.029,9.029,0,0,1-4.679.938c-4.532-.291-5.5-1.2-6.662-4.608-.267.072-.663.143-1.166.234-2.335.42-6.682,1.2-9.77,3.961-5.848,5.224-13.145,5.749-16.26,5.974a7.276,7.276,0,0,0-1.456.17,3.746,3.746,0,0,0-.175,1.325c-.11,2.307-.315,6.6-5.358,8.936-.161.074-.186.127-.186.127.107.389,3.131,1.283,8.776,1.634a54.558,54.558,0,0,0,16.441-1.258.208.208,0,0,1,.261.216c-.357,4.984,2.092,17.665,3.555,25.242C392.27,180.664,392.515,181.933,392.71,182.985Z" transform="translate(-362.539 -131.595)"/>
          </g>
        </g>
        <g id="Group_237" data-name="Group 237" transform="translate(74.405 49.605)">
          <path id="Path_213" data-name="Path 213" d="M499.186,183.682a.208.208,0,0,1-.2-.143c-2.425-7.343-3.8-11.988-3.8-22.056a.208.208,0,0,1,.416,0c0,10,1.364,14.623,3.775,21.926a.207.207,0,0,1-.132.262A.205.205,0,0,1,499.186,183.682Z" transform="translate(-495.192 -161.275)"/>
        </g>
        <g id="Group_238" data-name="Group 238" transform="translate(43.31 51.825)">
          <path id="Path_214" data-name="Path 214" d="M422.422,174.23a.207.207,0,0,1-.138-.053c-.123-.11-.125-.231-.147-1.712-.016-1.1-.043-2.945-.146-5.746a.208.208,0,1,1,.415-.016c.1,2.806.131,4.653.147,5.756.011.794.019,1.329.047,1.455a.208.208,0,0,1-.178.316Zm.139-.363h0Z" transform="translate(-421.991 -166.502)"/>
        </g>
        <g id="Group_239" data-name="Group 239" transform="translate(45.616 53.802)">
          <path id="Path_215" data-name="Path 215" d="M438.347,172.8c-4.561,0-8.7-.4-10.89-1.516a.069.069,0,0,1,.063-.124c4.511,2.3,17.467,1.545,25.075.48a.07.07,0,0,1,.02.138A109.763,109.763,0,0,1,438.347,172.8Z" transform="translate(-427.419 -171.155)" fill="#fff"/>
        </g>
        <g id="Group_240" data-name="Group 240" transform="translate(45.616 59.739)">
          <path id="Path_216" data-name="Path 216" d="M443.217,187.248a67.227,67.227,0,0,1-15.745-1.979.069.069,0,0,1,.033-.135c6.37,1.557,16.012,2.994,25.767,1a.069.069,0,1,1,.028.136A50.375,50.375,0,0,1,443.217,187.248Z" transform="translate(-427.419 -185.132)" fill="#fff"/>
        </g>
        <g id="Group_241" data-name="Group 241" transform="translate(78.931 69.278)">
          <path id="Path_217" data-name="Path 217" d="M518.11,212.339a.069.069,0,0,1-.053-.025,13.269,13.269,0,0,0-12.128-4.41.069.069,0,0,1-.023-.137,13.409,13.409,0,0,1,12.257,4.457.069.069,0,0,1-.053.114Z" transform="translate(-505.847 -207.589)" fill="#fff"/>
        </g>
        <g id="Group_242" data-name="Group 242" transform="translate(86.061 68.224)">
          <path id="Path_218" data-name="Path 218" d="M527.232,207.74a.071.071,0,0,1-.026-.005,4.359,4.359,0,0,1-1.228-.866c-.13-.116-.264-.236-.4-.347a5.925,5.925,0,0,0-2.888-1.279.069.069,0,1,1,.02-.137,6.063,6.063,0,0,1,2.955,1.308c.138.113.273.234.4.351a4.262,4.262,0,0,0,1.187.84.069.069,0,0,1-.026.134Z" transform="translate(-522.632 -205.106)" fill="#fff"/>
        </g>
        <g id="Group_243" data-name="Group 243" transform="translate(25.017 48.66)">
          <path id="Path_219" data-name="Path 219" d="M379,165.042a.066.066,0,0,1-.026-.005.069.069,0,0,1-.038-.09A14.465,14.465,0,0,0,380,159.122a.069.069,0,0,1,.068-.071.068.068,0,0,1,.071.068,14.6,14.6,0,0,1-1.075,5.88A.069.069,0,0,1,379,165.042Z" transform="translate(-378.928 -159.051)" fill="#fff"/>
        </g>
        <g id="Group_244" data-name="Group 244" transform="translate(27.748 48.66)">
          <path id="Path_220" data-name="Path 220" d="M385.425,161.356l-.015,0a.069.069,0,0,1-.052-.083,6.676,6.676,0,0,0,.133-2.144.069.069,0,0,1,.138-.014,6.817,6.817,0,0,1-.136,2.188A.069.069,0,0,1,385.425,161.356Z" transform="translate(-385.356 -159.051)" fill="#fff"/>
        </g>
        <g id="Group_245" data-name="Group 245" transform="translate(75.469 53.626)">
          <path id="Path_221" data-name="Path 221" d="M501.228,189.562a.208.208,0,0,1-.2-.153,108.048,108.048,0,0,1-3.33-18.441.208.208,0,0,1,.414-.038,107.64,107.64,0,0,0,3.317,18.37.208.208,0,0,1-.146.255A.222.222,0,0,1,501.228,189.562Z" transform="translate(-497.697 -170.741)" fill="#fff"/>
        </g>
        <g id="Group_246" data-name="Group 246" transform="translate(43.044 53.408)">
          <path id="Path_222" data-name="Path 222" d="M421.572,177.5h0a.208.208,0,0,1-.2-.211l.1-6.857a.208.208,0,0,1,.208-.2h0a.208.208,0,0,1,.2.211l-.1,6.857A.208.208,0,0,1,421.572,177.5Z" transform="translate(-421.364 -170.227)" fill="#fff"/>
        </g>
        <g id="Group_247" data-name="Group 247" transform="translate(33.748 47.774)">
          <rect id="Rectangle_60" data-name="Rectangle 60" width="24.126" height="31.447" transform="translate(0.208 4.837) rotate(-11.062)" fill="#fff"/>
          <path id="Path_223" data-name="Path 223" d="M405.724,192.873a.207.207,0,0,1-.2-.168l-6.034-30.863a.208.208,0,0,1,.164-.244l23.677-4.629a.207.207,0,0,1,.244.164L429.605,188a.207.207,0,0,1-.164.244l-23.678,4.629A.215.215,0,0,1,405.724,192.873Zm-5.79-30.906,5.954,30.454,23.27-4.549L423.2,157.417Z" transform="translate(-399.482 -156.965)"/>
        </g>
        <g id="Group_248" data-name="Group 248" transform="translate(48.69 88.752)">
          <path id="Path_224" data-name="Path 224" d="M437.072,282.9a.207.207,0,0,1-.2-.175,216.494,216.494,0,0,1-2.022-24.782q-.092-2.149-.189-4.3a.207.207,0,0,1,.2-.217.211.211,0,0,1,.218.2q.1,2.148.189,4.3a216.209,216.209,0,0,0,2.017,24.735.208.208,0,0,1-.173.238Z" transform="translate(-434.656 -253.432)"/>
        </g>
        <g id="Group_249" data-name="Group 249" transform="translate(62.489 98.259)">
          <path id="Path_225" data-name="Path 225" d="M473.692,282.1a.207.207,0,0,1-.192-.127c-.6-1.432-.948-2.426-1.254-3.3a22.414,22.414,0,0,0-.95-2.419,31.789,31.789,0,0,1-3.712.042l-.242-.006a.208.208,0,0,1,.011-.416l.243.006a27.591,27.591,0,0,0,3.782-.06.209.209,0,0,1,.226.113,21.928,21.928,0,0,1,1.036,2.6c.3.872.649,1.861,1.245,3.279a.207.207,0,0,1-.192.288Z" transform="translate(-467.14 -275.814)"/>
        </g>
        <g id="Group_250" data-name="Group 250" transform="translate(82.017 88.371)">
          <path id="Path_226" data-name="Path 226" d="M514.244,256.015a.208.208,0,0,1-.2-.146c-.063-.2-.163-.475-.269-.763a9.689,9.689,0,0,1-.665-2.352.207.207,0,0,1,.2-.217.2.2,0,0,1,.217.2,9.535,9.535,0,0,0,.639,2.228c.108.293.209.569.276.782a.208.208,0,0,1-.136.261A.21.21,0,0,1,514.244,256.015Z" transform="translate(-513.112 -252.536)"/>
        </g>
        <g id="Group_251" data-name="Group 251" transform="translate(51.809 58.665)">
          <path id="Path_227" data-name="Path 227" d="M477.275,197.117c-1.654-.637-17.465-6.081-19.673-8.565-1.41-1.586-5.437-4.772-6.588-4.943-1.929-.288-3.178-.714-4.8-.409-1.356.254-3.8,1.434-3.722,1.911.238,1.486,3.331-.531,3.652-.525a5.96,5.96,0,0,1,3.508.933,15.434,15.434,0,0,0-4.18,2.215,16.033,16.033,0,0,0-1.578,3.707c-.121.755.439,1.276,1.02.337a16.86,16.86,0,0,0,1.635-2.666c.141-.373,2.5-1.406,3.693-1.558a6.005,6.005,0,0,0-3.7,1.569c-.08.141-1.232,2.7-1.279,2.939-.2.986.711,1.03,1.191.341.544-.779,1.014-1.916,1.169-2.074a5.052,5.052,0,0,1,2.92-1.1,5.386,5.386,0,0,0-2.892,1.029c-.164.134-1.583,2.312-.884,2.925.375.33,1.219-.191,1.923-1.817a15.082,15.082,0,0,1,1.722-.146c.418-.036,2.695,2.445,4.468,2.8.356.071,6.688,7.316,15.521,11.712.789.393,7.7,3.125,10.56-1.309C481.655,203.335,482.259,199.037,477.275,197.117Z" transform="translate(-442.279 -182.886)" fill="#fff"/>
          <path id="Path_228" data-name="Path 228" d="M475.433,206.846a13.655,13.655,0,0,1-5.413-1.211,60.218,60.218,0,0,1-14.642-10.9c-.4-.392-.752-.733-.853-.8a9.654,9.654,0,0,1-3.423-2.077,5.977,5.977,0,0,0-.973-.714c-.2.017-.388.025-.567.033a7.867,7.867,0,0,0-1.016.091c-.486,1.078-1.1,1.79-1.646,1.914a.619.619,0,0,1-.559-.127.793.793,0,0,1-.257-.539.929.929,0,0,1-.945.223c-.123-.053-.514-.28-.369-1a1.2,1.2,0,0,1,.049-.152l-.016.023c-.422.683-.825.624-.978.567a.911.911,0,0,1-.421-1.05,15.941,15.941,0,0,1,1.624-3.807,14.379,14.379,0,0,1,3.874-2.124,5.932,5.932,0,0,0-3.035-.683,5.207,5.207,0,0,0-.554.251c-.878.428-2.2,1.074-2.9.714a.793.793,0,0,1-.413-.615c-.12-.752,2.764-1.938,3.89-2.149a9.11,9.11,0,0,1,3.556.184c.414.076.841.154,1.315.225,1.224.183,5.284,3.4,6.713,5.01,1.877,2.112,14.183,6.552,18.227,8.011.663.239,1.142.412,1.366.5h0a6.229,6.229,0,0,1,4.013,3.819,4.9,4.9,0,0,1-.234,3.793A6.063,6.063,0,0,1,475.433,206.846Zm-25.3-16.117c.226,0,.534.242,1.232.807a9.449,9.449,0,0,0,3.268,2c.124.025.246.137,1.036.906a59.833,59.833,0,0,0,14.537,10.823c.072.035,7.374,3.3,10.293-1.236a4.53,4.53,0,0,0,.188-3.439,5.918,5.918,0,0,0-3.767-3.561c-.22-.085-.7-.257-1.357-.495-4.5-1.624-16.45-5.936-18.4-8.126-1.452-1.633-5.428-4.721-6.463-4.876-.48-.072-.911-.15-1.328-.226a8.776,8.776,0,0,0-3.405-.184c-1.409.264-3.45,1.341-3.554,1.686a.371.371,0,0,0,.192.3c.507.264,1.819-.376,2.523-.719a2.252,2.252,0,0,1,.728-.293h.006a6.182,6.182,0,0,1,3.619.968.208.208,0,0,1-.042.368,15.377,15.377,0,0,0-4.093,2.153,15.987,15.987,0,0,0-1.533,3.607c-.05.313.042.553.155.6.094.036.281-.075.483-.4,0-.007.025-.037.062-.087a19.85,19.85,0,0,0,1.288-1.981c.143-.315.249-.542.271-.58.373-.66,2.522-1.674,3.885-1.674h0a.208.208,0,0,1,.027.414,9.236,9.236,0,0,0-3.528,1.432,4.944,4.944,0,0,1-.285.6c-.36.8-.956,2.154-.993,2.313-.056.279-.009.48.124.537a.679.679,0,0,0,.692-.356c.076-.109.15-.226.223-.346a6.123,6.123,0,0,1,1.013-1.841,4.091,4.091,0,0,1,.446-.316,3.486,3.486,0,0,1,.824-.391,8.067,8.067,0,0,1,1.727-.367.208.208,0,0,1,.068.41c-.156.031-.319.059-.486.088a6.856,6.856,0,0,0-1.344.325,3.8,3.8,0,0,0-.478.232,2.538,2.538,0,0,0-.506.4,5.263,5.263,0,0,0-.3.557c-.159.313-.36.711-.584,1.084a1.841,1.841,0,0,0-.1.581.43.43,0,0,0,.121.33.2.2,0,0,0,.193.033c.323-.072.884-.581,1.4-1.777a.209.209,0,0,1,.154-.122,8.038,8.038,0,0,1,1.18-.116c.178-.008.362-.016.562-.033Zm-4.277-6.218h0Z" transform="translate(-441.998 -182.603)"/>
        </g>
        <g id="Group_252" data-name="Group 252" transform="translate(46.228 63.915)">
          <ellipse id="Ellipse_28" data-name="Ellipse 28" cx="2.319" cy="1.871" rx="2.319" ry="1.871" transform="matrix(0.988, -0.157, 0.157, 0.988, 0, 0.73)"/>
          <path id="Path_229" data-name="Path 229" d="M431.382,199.429a2.237,2.237,0,0,1-2.341-1.693,1.9,1.9,0,0,1,.514-1.585,2.937,2.937,0,0,1,3.5-.557,1.834,1.834,0,0,1,.467,2.932,2.82,2.82,0,0,1-1.655.865A3.114,3.114,0,0,1,431.382,199.429Zm.315-3.767a2.646,2.646,0,0,0-.422.034,2.4,2.4,0,0,0-1.412.733,1.494,1.494,0,0,0-.412,1.241,1.931,1.931,0,0,0,2.347,1.31,2.4,2.4,0,0,0,1.412-.733,1.42,1.42,0,0,0-.365-2.293A2.309,2.309,0,0,0,431.7,195.662Z" transform="translate(-428.952 -195.126)"/>
        </g>
        <g id="Group_253" data-name="Group 253" transform="translate(64.711 98.358)">
          <path id="Path_230" data-name="Path 230" d="M472.728,285.373a.208.208,0,0,1-.208-.2c-.045-2.29-.059-3.391-.073-4.457s-.029-2.166-.074-4.454a.208.208,0,0,1,.2-.212h0a.208.208,0,0,1,.208.2c.046,2.29.06,3.392.074,4.457s.028,2.166.074,4.454a.208.208,0,0,1-.2.212Z" transform="translate(-472.373 -276.046)"/>
        </g>
        <g id="Group_254" data-name="Group 254" transform="translate(22.153 93.099)">
          <path id="Path_231" data-name="Path 231" d="M374.488,301.569s-3.162-1.342,12.447-19.242c12.007-13.769,12.591-13.724,12.591-13.724l-.22-4.448s-14.961,14.481-21.262,23.156C368.572,300.354,374.488,301.569,374.488,301.569Z" transform="translate(-372.46 -263.946)"/>
          <path id="Path_232" data-name="Path 232" d="M374.215,301.5a.23.23,0,0,1-.045,0,2.565,2.565,0,0,1-1.734-1.631c-.674-1.737-.325-5.394,5.165-12.953,6.239-8.59,21.136-23.038,21.286-23.184a.208.208,0,0,1,.352.139l.22,4.448a.206.206,0,0,1-.063.159.2.2,0,0,1-.075.047c-.154.09-1.606,1.168-12.5,13.665-11.893,13.639-12.8,17.56-12.645,18.613a.473.473,0,0,0,.129.3.2.2,0,0,1,.128.242A.216.216,0,0,1,374.215,301.5Zm.078-.4Zm24.553-36.752c-2.234,2.183-15.208,14.959-20.909,22.808-5.37,7.393-5.747,10.9-5.119,12.546a2.3,2.3,0,0,0,.943,1.173c-.227-1.415,1.217-5.748,12.741-18.962,6.2-7.116,9.3-10.471,10.8-12.033a17.068,17.068,0,0,1,1.729-1.664Zm.39,4.185h0Zm0,0h0Z" transform="translate(-372.183 -263.665)"/>
        </g>
        <g id="Group_255" data-name="Group 255" transform="translate(89.57 55.262)">
          <path id="Path_233" data-name="Path 233" d="M531.382,181.63s17.024-10.76,18.658-4.7c-1.754-2.595-18.021,8.964-18.021,8.964Z" transform="translate(-531.174 -174.872)"/>
          <path id="Path_234" data-name="Path 234" d="M531.737,185.822a.211.211,0,0,1-.082-.017.208.208,0,0,1-.124-.161l-.636-4.263a.208.208,0,0,1,.094-.206c.524-.331,12.884-8.09,17.424-6.32a2.461,2.461,0,0,1,1.545,1.741.208.208,0,0,1-.373.171.67.67,0,0,0-.466-.263c-3.307-.6-17.123,9.181-17.262,9.28A.209.209,0,0,1,531.737,185.822Zm-.41-4.367.566,3.794c2.039-1.432,14.051-9.745,17.3-9.155.044.008.087.017.127.028a2.017,2.017,0,0,0-1.058-.879C544.14,173.634,532.605,180.663,531.326,181.455Z" transform="translate(-530.893 -174.593)"/>
        </g>
      </g>
    </g>
  </g>
</svg>
